# xmcd
#
# Track frame offsets: 
#        150
#        18982
#        45305
#        56877
#        58182
#        66355
#        85695
#        112990
#        139107
#        141230
#        156585
#        174612
#        191390
#        211857
#
# Disc length: 2982 seconds
#
# Revision: 1
# Processed by: cddbd v1.5.2PL0 Copyright (c) Steve Scherf et al.
# Submitted via: ExactAudioCopy v0.99pb5
#
DISCID=c80ba40e
DTITLE=Arthur Williams - Midnight Blue
DYEAR=2001
DGENRE=Blues
TTITLE0=You Got My Nose Open
TTITLE1=MIdnight Blue
TTITLE2=Trouble No More
TTITLE3=intro
TTITLE4=Don't Start Me To Talking
TTITLE5=Big Fat Mama
TTITLE6=Down In Virginia
TTITLE7=Reconsider Baby
TTITLE8=Keep It To Yourself [Vocal Intro]
TTITLE9=Keep It To Yourself
TTITLE10=Key To The Highway
TTITLE11=Clarksdale Train
TTITLE12=Ride With Your Daddy
TTITLE13='67 Cadillac
EXTD=
EXTT0=
EXTT1=
EXTT2=
EXTT3=
EXTT4=
EXTT5=
EXTT6=
EXTT7=
EXTT8=
EXTT9=
EXTT10=
EXTT11=
EXTT12=
EXTT13=
PLAYORDER=
